PathFileType	4	(X/Y/Z)	CPRIT_Patient3_R_KneeIso_Processed.TRC
DataRate	CameraRate	NumFrames	NumMarkers	Units	OrigDataRate	OrigDataStartFrame	OrigNumFrames
150.195058517555	150.195058517555	4	39	m	150.195058517555	193	       771
Frame#	Time	R.Heel			R.Midfoot.Superior			R.Midfoot.Lateral			R.Toe			L.Heel			L.Midfoot.Superior			L.Midfoot.Lateral			L.Toe			R.Shank.Superior			R.Shank.Inferior			R.Shank.Lateral			R.Shank.Posterior			L.Shank.Superior			L.Shank.Inferior			L.Shank.Posterior			L.Shank.Lateral			R.Patella			L.Patella			R.Thigh.Superior			R.Thigh.Lateral			R.Thigh.Inferior			L.Thigh.Superior			L.Thigh.Inferior			L.Thigh.Lateral			L.ASIS			R.ASIS			Sacral			R.Shoulder			L.Shoulder			C7			J.Notch			Sternum			Thoracic			L.Elbow			L.Wrist			R.Elbow			R.Wrist			R.PSIS			L.PSIS			
		X1	Y1	Z1	X2	Y2	Z2	X3	Y3	Z3	X4	Y4	Z4	X5	Y5	Z5	X6	Y6	Z6	X7	Y7	Z7	X8	Y8	Z8	X9	Y9	Z9	X10	Y10	Z10	X11	Y11	Z11	X12	Y12	Z12	X13	Y13	Z13	X14	Y14	Z14	X15	Y15	Z15	X16	Y16	Z16	X17	Y17	Z17	X18	Y18	Z18	X19	Y19	Z19	X20	Y20	Z20	X21	Y21	Z21	X22	Y22	Z22	X23	Y23	Z23	X24	Y24	Z24	X25	Y25	Z25	X26	Y26	Z26	X27	Y27	Z27	X28	Y28	Z28	X29	Y29	Z29	X30	Y30	Z30	X31	Y31	Z31	X32	Y32	Z32	X33	Y33	Z33	X34	Y34	Z34	X35	Y35	Z35	X36	Y36	Z36	X37	Y37	Z37	X38	Y38	Z38	X39	Y39	Z39	

193	1.278337662338	0.481313862340	0.537594494193	0.012150632139	0.567591437040	0.386563843168	0.046010755768	0.480387169171	0.462879574955	0.071549932148	0.551046766734	0.263181719937	0.057535812805	0.653612442570	0.042691132184	-0.090821784081	0.818010340760	0.096229129910	-0.136345044949	0.721101839889	0.032740558516	-0.161257691766	0.932180019887	0.056719332282	-0.163460047723	0.817149162183	0.460495278275	0.085017592872	0.695514534217	0.453552650821	0.067016046893	0.731350826500	0.529591454961	0.125368383987	0.777576384266	0.596865497113	0.066597647663	0.775568558693	0.365674819756	-0.153198446684	0.762723001913	0.237174396048	-0.144221575646	0.632378717210	0.340175985113	-0.144348991740	0.699477079783	0.277102053306	-0.197926246957	0.968514508600	0.499152812441	0.087162893783	0.795684934568	0.466473546801	-0.156776403419	0.866669672984	0.831085939699	0.088767057088	0.829629484924	0.738719222757	0.142340553806	0.945035442682	0.693940045269	0.067391451180	0.846956174538	0.775692526200	-0.179682170766	0.832157746748	0.611195985791	-0.165980992043	0.746702820502	0.703853347930	-0.231286098887	0.838055347361	0.936082480590	-0.168893760390	0.809255806006	0.955624384233	0.069590784431	0.635900109960	0.991451213267	-0.062823966639	0.763755863479	1.452113441577	0.083262752060	0.779249724190	1.463839910635	-0.229409871337	0.714633391838	1.480441419672	-0.075643984676	0.831469023110	1.375503845700	-0.072707119211	0.880971678195	1.196394985162	-0.071502040221	0.626296858071	1.325733181236	-0.082702573403	0.755507794588	1.186526858698	-0.411485654681	0.903313307940	0.987227279922	-0.450703438361	0.672929240205	1.182271941528	0.257808033292	0.736780546444	0.981830185068	0.384125829871	0.635172127968	0.993274981555	-0.025312876747	0.639746297434	0.991100339754	-0.100610771287	
194	1.284995670996	0.481814618368	0.539228829359	0.011765364510	0.567456103286	0.387829523697	0.045704491809	0.480495425236	0.464492283294	0.071150433130	0.550410874293	0.264496287659	0.057167568170	0.653612234211	0.042690928608	-0.090821161437	0.818010106714	0.096230402896	-0.136345270842	0.721102015246	0.032741018149	-0.161257177234	0.932179529936	0.056720543582	-0.163461083033	0.817300964419	0.461011947694	0.085061659953	0.695660605011	0.454466698716	0.066911173685	0.731646155892	0.530420805064	0.125288291350	0.778150570428	0.597554626398	0.066568206185	0.775558603304	0.365681804441	-0.153177087835	0.762708755065	0.237176836223	-0.144214167983	0.632373162658	0.340170151770	-0.144276429349	0.699451008543	0.277105962354	-0.197903270439	0.968788298821	0.499354220438	0.087407912357	0.795658788600	0.466477654362	-0.156761445834	0.866725086070	0.831155356604	0.088797536892	0.829749256588	0.738846521534	0.142464540513	0.945232551367	0.694147580518	0.067574333413	0.846904383155	0.775697855821	-0.179653871084	0.832103912359	0.611199729258	-0.165966191963	0.746653065215	0.703867856277	-0.231266585047	0.838006061863	0.936083892120	-0.168903235632	0.809288488091	0.955645240139	0.069596951335	0.635885066827	0.991464812111	-0.062763622580	0.763684472904	1.452125759574	0.083290644790	0.779110516182	1.463839318000	-0.229401040012	0.714526136300	1.480445040793	-0.075595287074	0.831380976064	1.375527172308	-0.072696764484	0.880920612020	1.196418800961	-0.071512206921	0.626229487893	1.325720510691	-0.082644736028	0.755431573509	1.186483644398	-0.411423165971	0.903290772709	0.987230076528	-0.450683198968	0.672885757001	1.182282463796	0.257842305309	0.736776243102	0.981832762587	0.384131232693	0.635167407812	0.993289892368	-0.025250276183	0.639718828057	0.991110042968	-0.100549366909	
195	1.291653679654	0.482304360399	0.540582680695	0.011406798624	0.567405695034	0.388878409064	0.045439057311	0.480642635632	0.465831278484	0.070781309985	0.549938430913	0.265586541045	0.056850309234	0.653612069021	0.042690744955	-0.090820574738	0.818009883611	0.096231311577	-0.136345471644	0.721102282787	0.032741458888	-0.161256596477	0.932179095848	0.056721488565	-0.163461985578	0.817484196909	0.461470118670	0.085121815853	0.695844814086	0.455241395201	0.066826975692	0.731937592789	0.531134948292	0.125221982721	0.778677384908	0.598154886903	0.066549245554	0.775549062462	0.365688096678	-0.153156697081	0.762695654818	0.237179028757	-0.144206171714	0.632367427107	0.340164701720	-0.144209377663	0.699426657360	0.277109673167	-0.197880896383	0.969070654349	0.499562525890	0.087656829843	0.795634444517	0.466481289272	-0.156746068137	0.866781283871	0.831223333426	0.088829392860	0.829865239678	0.738974634307	0.142589856419	0.945425038800	0.694356609846	0.067757388819	0.846855414561	0.775702200578	-0.179625002327	0.832052996316	0.611202527976	-0.165950326695	0.746606461629	0.703880925298	-0.231247090627	0.837959880040	0.936084766800	-0.168911582861	0.809318766201	0.955667529553	0.069602635655	0.635870406807	0.991477271150	-0.062706896099	0.763617617057	1.452136761775	0.083312896020	0.778972946991	1.463838593904	-0.229397108495	0.714420007821	1.480448960567	-0.075552553607	0.831294566652	1.375549611168	-0.072690895401	0.880870293275	1.196441879216	-0.071527588432	0.626163334275	1.325707832572	-0.082591458930	0.755356032620	1.186441018301	-0.411366103433	0.903269056639	0.987232674245	-0.450664900279	0.672846982300	1.182292277239	0.257872812350	0.736772640205	0.981835241414	0.384136176094	0.635162321528	0.993303815279	-0.025191448817	0.639692347600	0.991118429317	-0.100491355466	
196	1.298311688312	0.482779713847	0.541649702754	0.011076215311	0.567440376398	0.389705504274	0.045217335024	0.480827434350	0.466890577550	0.070444769321	0.549631768997	0.266446835607	0.056588799554	0.653611948020	0.042690590153	-0.090820027893	0.818009683377	0.096231852435	-0.136345632477	0.721102636912	0.032741885133	-0.161255958051	0.932178715675	0.056722145077	-0.163462758013	0.817698724934	0.461867714496	0.085197740388	0.696066485741	0.455873330918	0.066764231927	0.732224316509	0.531731310342	0.125169443361	0.779154738484	0.598663859575	0.066539447456	0.775540370231	0.365693627501	-0.153137041917	0.762683991940	0.237180945807	-0.144197539105	0.632361478442	0.340159880033	-0.144149127837	0.699404459099	0.277113227045	-0.197859216129	0.969361422080	0.499777244313	0.087907416901	0.795612435782	0.466484473142	-0.156730291752	0.866838207442	0.831290580115	0.088863360864	0.829977525785	0.739103145947	0.142715752617	0.945612529434	0.694566747191	0.067939135138	0.846809782645	0.775705691668	-0.179595728919	0.832005749119	0.611204509368	-0.165933383460	0.746563392945	0.703892471473	-0.231227469487	0.837917158745	0.936085322871	-0.168918433947	0.809346228904	0.955691271660	0.069608008176	0.635856155672	0.991488353899	-0.062653880462	0.763554737933	1.452146458603	0.083329498278	0.778837739257	1.463837654164	-0.229397976261	0.714315070611	1.480453032551	-0.075516002571	0.831209895934	1.375570916491	-0.072689142237	0.880820522063	1.196463995702	-0.071547640724	0.626098357973	1.325695068217	-0.082543155774	0.755281926288	1.186399418487	-0.411315005428	0.903248422109	0.987235043179	-0.450648687258	0.672812682881	1.182301151861	0.257899267540	0.736769691041	0.981837601357	0.384140605140	0.635156837920	0.993316489245	-0.025136518497	0.639666999687	0.991125316249	-0.100436864332	
